<mxfile host="app.diagrams.net" modified="2022-05-12T04:47:57.167Z" agent="5.0 (Macintosh; Intel Mac OS X 10_15_7) AppleWebKit/537.36 (KHTML, like Gecko) Chrome/101.0.4951.54 Safari/537.36" etag="OdcUFtr2Lo97ASBxzxpa" version="18.0.2" type="github">
  <diagram id="6O3iE0hS93AYcW-6OMfp" name="Page-1">
    <mxGraphModel dx="1496" dy="720" grid="0" gridSize="10" guides="1" tooltips="1" connect="1" arrows="1" fold="1" page="1" pageScale="1" pageWidth="1100" pageHeight="850" math="0" shadow="0">
      <root>
        <mxCell id="0" />
        <mxCell id="1" parent="0" />
        <mxCell id="6zYEtl8LHIOl750SULep-53" value="" style="group;" vertex="1" connectable="0" parent="1">
          <mxGeometry x="35" y="10" width="110" height="80" as="geometry" />
        </mxCell>
        <mxCell id="6zYEtl8LHIOl750SULep-50" value="" style="shape=cylinder3;whiteSpace=wrap;html=1;boundedLbl=1;backgroundOutline=1;size=15;fontSize=200;fillColor=#f5f5f5;fontColor=#333333;strokeColor=#666666;" vertex="1" parent="6zYEtl8LHIOl750SULep-53">
          <mxGeometry x="5" width="100" height="80" as="geometry" />
        </mxCell>
        <mxCell id="6zYEtl8LHIOl750SULep-52" value="&lt;b&gt;&lt;font style=&quot;font-size: 16px;&quot;&gt;Crunchbase&lt;/font&gt;&lt;/b&gt;" style="text;html=1;align=center;verticalAlign=middle;resizable=0;points=[];autosize=1;strokeColor=none;fillColor=none;fontSize=12;" vertex="1" parent="6zYEtl8LHIOl750SULep-53">
          <mxGeometry y="40" width="110" height="20" as="geometry" />
        </mxCell>
        <mxCell id="6zYEtl8LHIOl750SULep-54" value="" style="group;" vertex="1" connectable="0" parent="1">
          <mxGeometry x="900" y="10" width="110" height="80" as="geometry" />
        </mxCell>
        <mxCell id="6zYEtl8LHIOl750SULep-55" value="" style="shape=cylinder3;whiteSpace=wrap;html=1;boundedLbl=1;backgroundOutline=1;size=15;fontSize=200;fillColor=#f5f5f5;fontColor=#333333;strokeColor=#666666;" vertex="1" parent="6zYEtl8LHIOl750SULep-54">
          <mxGeometry x="5" width="100" height="80" as="geometry" />
        </mxCell>
        <mxCell id="6zYEtl8LHIOl750SULep-56" value="&lt;b&gt;&lt;font style=&quot;font-size: 16px;&quot;&gt;Namesor&lt;/font&gt;&lt;/b&gt;" style="text;html=1;align=center;verticalAlign=middle;resizable=0;points=[];autosize=1;strokeColor=none;fillColor=none;fontSize=12;" vertex="1" parent="6zYEtl8LHIOl750SULep-54">
          <mxGeometry x="15" y="40" width="80" height="20" as="geometry" />
        </mxCell>
        <mxCell id="6zYEtl8LHIOl750SULep-63" value="Basic Info (5)" style="swimlane;fontSize=16;startSize=30;fillColor=#e1d5e7;strokeColor=#9673a6;" vertex="1" parent="1">
          <mxGeometry x="10" y="140" width="160" height="180" as="geometry" />
        </mxCell>
        <mxCell id="6zYEtl8LHIOl750SULep-65" value="Organization Name (Index)" style="shape=partialRectangle;overflow=hidden;connectable=0;fillColor=none;top=0;left=0;bottom=0;right=0;align=left;spacingLeft=6;fontStyle=4" vertex="1" parent="6zYEtl8LHIOl750SULep-63">
          <mxGeometry y="30" width="160" height="30" as="geometry">
            <mxRectangle width="180" height="30" as="alternateBounds" />
          </mxGeometry>
        </mxCell>
        <mxCell id="6zYEtl8LHIOl750SULep-79" value="Founded Date" style="shape=partialRectangle;overflow=hidden;connectable=0;fillColor=none;top=0;left=0;bottom=0;right=0;align=left;spacingLeft=6;" vertex="1" parent="6zYEtl8LHIOl750SULep-63">
          <mxGeometry y="60" width="120" height="30" as="geometry">
            <mxRectangle width="180" height="30" as="alternateBounds" />
          </mxGeometry>
        </mxCell>
        <mxCell id="6zYEtl8LHIOl750SULep-80" value="Estimate Revenue Range" style="shape=partialRectangle;overflow=hidden;connectable=0;fillColor=none;top=0;left=0;bottom=0;right=0;align=left;spacingLeft=6;" vertex="1" parent="6zYEtl8LHIOl750SULep-63">
          <mxGeometry y="90" width="150" height="30" as="geometry">
            <mxRectangle width="180" height="30" as="alternateBounds" />
          </mxGeometry>
        </mxCell>
        <mxCell id="6zYEtl8LHIOl750SULep-81" value="Number of Employees" style="shape=partialRectangle;overflow=hidden;connectable=0;fillColor=none;top=0;left=0;bottom=0;right=0;align=left;spacingLeft=6;" vertex="1" parent="6zYEtl8LHIOl750SULep-63">
          <mxGeometry y="120" width="150" height="30" as="geometry">
            <mxRectangle width="180" height="30" as="alternateBounds" />
          </mxGeometry>
        </mxCell>
        <mxCell id="6zYEtl8LHIOl750SULep-90" value="Most Recent Valuation" style="shape=partialRectangle;overflow=hidden;connectable=0;fillColor=none;top=0;left=0;bottom=0;right=0;align=left;spacingLeft=6;" vertex="1" parent="6zYEtl8LHIOl750SULep-63">
          <mxGeometry y="150" width="170" height="30" as="geometry">
            <mxRectangle width="180" height="30" as="alternateBounds" />
          </mxGeometry>
        </mxCell>
        <mxCell id="6zYEtl8LHIOl750SULep-68" value="Funding (3)" style="swimlane;fontSize=16;startSize=30;fillColor=#e1d5e7;strokeColor=#9673a6;" vertex="1" parent="1">
          <mxGeometry x="300" y="140" width="130" height="120" as="geometry" />
        </mxCell>
        <mxCell id="6zYEtl8LHIOl750SULep-69" value="Last Funding Date" style="shape=partialRectangle;overflow=hidden;connectable=0;fillColor=none;top=0;left=0;bottom=0;right=0;align=left;spacingLeft=6;" vertex="1" parent="6zYEtl8LHIOl750SULep-68">
          <mxGeometry y="30" width="120" height="30" as="geometry">
            <mxRectangle width="180" height="30" as="alternateBounds" />
          </mxGeometry>
        </mxCell>
        <mxCell id="6zYEtl8LHIOl750SULep-70" value="Last Funding Type" style="shape=partialRectangle;overflow=hidden;connectable=0;fillColor=none;top=0;left=0;bottom=0;right=0;align=left;spacingLeft=6;" vertex="1" parent="6zYEtl8LHIOl750SULep-68">
          <mxGeometry y="60" width="120" height="30" as="geometry">
            <mxRectangle width="180" height="30" as="alternateBounds" />
          </mxGeometry>
        </mxCell>
        <mxCell id="6zYEtl8LHIOl750SULep-71" value="Total Funding Amount" style="shape=partialRectangle;overflow=hidden;connectable=0;fillColor=none;top=0;left=0;bottom=0;right=0;align=left;spacingLeft=6;" vertex="1" parent="6zYEtl8LHIOl750SULep-68">
          <mxGeometry y="90" width="130" height="30" as="geometry">
            <mxRectangle width="180" height="30" as="alternateBounds" />
          </mxGeometry>
        </mxCell>
        <mxCell id="6zYEtl8LHIOl750SULep-72" value="Industries (1)" style="swimlane;fontSize=16;startSize=30;fillColor=#e1d5e7;strokeColor=#9673a6;" vertex="1" parent="1">
          <mxGeometry x="440" y="140" width="120" height="60" as="geometry" />
        </mxCell>
        <mxCell id="6zYEtl8LHIOl750SULep-73" value="Industries" style="shape=partialRectangle;overflow=hidden;connectable=0;fillColor=none;top=0;left=0;bottom=0;right=0;align=left;spacingLeft=6;" vertex="1" parent="6zYEtl8LHIOl750SULep-72">
          <mxGeometry y="30" width="110" height="30" as="geometry">
            <mxRectangle width="180" height="30" as="alternateBounds" />
          </mxGeometry>
        </mxCell>
        <mxCell id="6zYEtl8LHIOl750SULep-76" value="Investors (4)" style="swimlane;fontSize=16;startSize=30;fillColor=#e1d5e7;strokeColor=#9673a6;" vertex="1" parent="1">
          <mxGeometry x="570" y="140" width="150" height="150" as="geometry" />
        </mxCell>
        <mxCell id="6zYEtl8LHIOl750SULep-77" value="Top 5 Investors" style="shape=partialRectangle;overflow=hidden;connectable=0;fillColor=none;top=0;left=0;bottom=0;right=0;align=left;spacingLeft=6;" vertex="1" parent="6zYEtl8LHIOl750SULep-76">
          <mxGeometry y="30" width="120" height="30" as="geometry">
            <mxRectangle width="180" height="30" as="alternateBounds" />
          </mxGeometry>
        </mxCell>
        <mxCell id="6zYEtl8LHIOl750SULep-78" value="Number of Investors" style="shape=partialRectangle;overflow=hidden;connectable=0;fillColor=none;top=0;left=0;bottom=0;right=0;align=left;spacingLeft=6;" vertex="1" parent="6zYEtl8LHIOl750SULep-76">
          <mxGeometry y="60" width="120" height="30" as="geometry">
            <mxRectangle width="180" height="30" as="alternateBounds" />
          </mxGeometry>
        </mxCell>
        <mxCell id="6zYEtl8LHIOl750SULep-82" value="Number of Lead Investors" style="shape=partialRectangle;overflow=hidden;connectable=0;fillColor=none;top=0;left=0;bottom=0;right=0;align=left;spacingLeft=6;" vertex="1" parent="6zYEtl8LHIOl750SULep-76">
          <mxGeometry y="90" width="150" height="30" as="geometry">
            <mxRectangle width="180" height="30" as="alternateBounds" />
          </mxGeometry>
        </mxCell>
        <mxCell id="6zYEtl8LHIOl750SULep-83" value="Number of Acquisitions" style="shape=partialRectangle;overflow=hidden;connectable=0;fillColor=none;top=0;left=0;bottom=0;right=0;align=left;spacingLeft=6;" vertex="1" parent="6zYEtl8LHIOl750SULep-76">
          <mxGeometry y="120" width="140" height="30" as="geometry">
            <mxRectangle width="180" height="30" as="alternateBounds" />
          </mxGeometry>
        </mxCell>
        <mxCell id="6zYEtl8LHIOl750SULep-84" value="Tech Stack (7)" style="swimlane;fontSize=16;startSize=30;fillColor=#e1d5e7;strokeColor=#9673a6;" vertex="1" parent="1">
          <mxGeometry x="730" y="140" width="150" height="180" as="geometry" />
        </mxCell>
        <mxCell id="6zYEtl8LHIOl750SULep-85" value="Monthly Visits" style="shape=partialRectangle;overflow=hidden;connectable=0;fillColor=none;top=0;left=0;bottom=0;right=0;align=left;spacingLeft=6;" vertex="1" parent="6zYEtl8LHIOl750SULep-84">
          <mxGeometry y="30" width="120" height="30" as="geometry">
            <mxRectangle width="180" height="30" as="alternateBounds" />
          </mxGeometry>
        </mxCell>
        <mxCell id="6zYEtl8LHIOl750SULep-86" value="Active Tech Count" style="shape=partialRectangle;overflow=hidden;connectable=0;fillColor=none;top=0;left=0;bottom=0;right=0;align=left;spacingLeft=6;" vertex="1" parent="6zYEtl8LHIOl750SULep-84">
          <mxGeometry y="60" width="120" height="30" as="geometry">
            <mxRectangle width="180" height="30" as="alternateBounds" />
          </mxGeometry>
        </mxCell>
        <mxCell id="6zYEtl8LHIOl750SULep-87" value="Number of Apps" style="shape=partialRectangle;overflow=hidden;connectable=0;fillColor=none;top=0;left=0;bottom=0;right=0;align=left;spacingLeft=6;" vertex="1" parent="6zYEtl8LHIOl750SULep-84">
          <mxGeometry y="90" width="150" height="30" as="geometry">
            <mxRectangle width="180" height="30" as="alternateBounds" />
          </mxGeometry>
        </mxCell>
        <mxCell id="6zYEtl8LHIOl750SULep-88" value="Total Products Active" style="shape=partialRectangle;overflow=hidden;connectable=0;fillColor=none;top=0;left=0;bottom=0;right=0;align=left;spacingLeft=6;" vertex="1" parent="6zYEtl8LHIOl750SULep-84">
          <mxGeometry y="120" width="120" height="30" as="geometry">
            <mxRectangle width="180" height="30" as="alternateBounds" />
          </mxGeometry>
        </mxCell>
        <mxCell id="6zYEtl8LHIOl750SULep-91" value="..." style="shape=partialRectangle;overflow=hidden;connectable=0;fillColor=none;top=0;left=0;bottom=0;right=0;align=left;spacingLeft=6;" vertex="1" parent="6zYEtl8LHIOl750SULep-84">
          <mxGeometry y="150" width="120" height="30" as="geometry">
            <mxRectangle width="180" height="30" as="alternateBounds" />
          </mxGeometry>
        </mxCell>
        <mxCell id="6zYEtl8LHIOl750SULep-92" value="Location (3)" style="swimlane;fontSize=16;startSize=30;fillColor=#e1d5e7;strokeColor=#9673a6;" vertex="1" parent="1">
          <mxGeometry x="180" y="140" width="110" height="120" as="geometry" />
        </mxCell>
        <mxCell id="6zYEtl8LHIOl750SULep-93" value="China" style="shape=partialRectangle;overflow=hidden;connectable=0;fillColor=none;top=0;left=0;bottom=0;right=0;align=left;spacingLeft=6;" vertex="1" parent="6zYEtl8LHIOl750SULep-92">
          <mxGeometry y="30" width="120" height="30" as="geometry">
            <mxRectangle width="180" height="30" as="alternateBounds" />
          </mxGeometry>
        </mxCell>
        <mxCell id="6zYEtl8LHIOl750SULep-94" value="Europe" style="shape=partialRectangle;overflow=hidden;connectable=0;fillColor=none;top=0;left=0;bottom=0;right=0;align=left;spacingLeft=6;" vertex="1" parent="6zYEtl8LHIOl750SULep-92">
          <mxGeometry y="60" width="100" height="30" as="geometry">
            <mxRectangle width="180" height="30" as="alternateBounds" />
          </mxGeometry>
        </mxCell>
        <mxCell id="6zYEtl8LHIOl750SULep-95" value="United States" style="shape=partialRectangle;overflow=hidden;connectable=0;fillColor=none;top=0;left=0;bottom=0;right=0;align=left;spacingLeft=6;" vertex="1" parent="6zYEtl8LHIOl750SULep-92">
          <mxGeometry y="90" width="100" height="30" as="geometry">
            <mxRectangle width="180" height="30" as="alternateBounds" />
          </mxGeometry>
        </mxCell>
        <mxCell id="6zYEtl8LHIOl750SULep-97" value="Gender (1)" style="swimlane;fontSize=16;startSize=30;fillColor=#e1d5e7;strokeColor=#9673a6;" vertex="1" parent="1">
          <mxGeometry x="890" y="140" width="130" height="60" as="geometry" />
        </mxCell>
        <mxCell id="6zYEtl8LHIOl750SULep-98" value="% Female Founders" style="shape=partialRectangle;overflow=hidden;connectable=0;fillColor=none;top=0;left=0;bottom=0;right=0;align=left;spacingLeft=6;" vertex="1" parent="6zYEtl8LHIOl750SULep-97">
          <mxGeometry y="30" width="120" height="30" as="geometry">
            <mxRectangle width="180" height="30" as="alternateBounds" />
          </mxGeometry>
        </mxCell>
        <mxCell id="6zYEtl8LHIOl750SULep-101" value="" style="endArrow=none;html=1;rounded=0;fontSize=16;" edge="1" parent="1">
          <mxGeometry width="50" height="50" relative="1" as="geometry">
            <mxPoint x="90" y="120" as="sourcePoint" />
            <mxPoint x="810" y="120" as="targetPoint" />
          </mxGeometry>
        </mxCell>
        <mxCell id="6zYEtl8LHIOl750SULep-103" style="edgeStyle=none;rounded=0;orthogonalLoop=1;jettySize=auto;html=1;exitX=0.5;exitY=1;exitDx=0;exitDy=0;exitPerimeter=0;entryX=0.5;entryY=0;entryDx=0;entryDy=0;fontSize=16;" edge="1" parent="1" source="6zYEtl8LHIOl750SULep-50" target="6zYEtl8LHIOl750SULep-63">
          <mxGeometry relative="1" as="geometry" />
        </mxCell>
        <mxCell id="6zYEtl8LHIOl750SULep-105" style="edgeStyle=none;rounded=0;orthogonalLoop=1;jettySize=auto;html=1;entryX=0.5;entryY=0;entryDx=0;entryDy=0;fontSize=16;" edge="1" parent="1" target="6zYEtl8LHIOl750SULep-92">
          <mxGeometry relative="1" as="geometry">
            <mxPoint x="235" y="120" as="sourcePoint" />
            <mxPoint x="90" y="150" as="targetPoint" />
          </mxGeometry>
        </mxCell>
        <mxCell id="6zYEtl8LHIOl750SULep-106" style="edgeStyle=none;rounded=0;orthogonalLoop=1;jettySize=auto;html=1;entryX=0.5;entryY=0;entryDx=0;entryDy=0;fontSize=16;" edge="1" parent="1">
          <mxGeometry relative="1" as="geometry">
            <mxPoint x="364.8" y="120" as="sourcePoint" />
            <mxPoint x="364.8" y="140" as="targetPoint" />
          </mxGeometry>
        </mxCell>
        <mxCell id="6zYEtl8LHIOl750SULep-107" style="edgeStyle=none;rounded=0;orthogonalLoop=1;jettySize=auto;html=1;entryX=0.5;entryY=0;entryDx=0;entryDy=0;fontSize=16;" edge="1" parent="1">
          <mxGeometry relative="1" as="geometry">
            <mxPoint x="499.79999999999995" y="120" as="sourcePoint" />
            <mxPoint x="499.79999999999995" y="140.00000000000006" as="targetPoint" />
          </mxGeometry>
        </mxCell>
        <mxCell id="6zYEtl8LHIOl750SULep-108" style="edgeStyle=none;rounded=0;orthogonalLoop=1;jettySize=auto;html=1;entryX=0.5;entryY=0;entryDx=0;entryDy=0;fontSize=16;" edge="1" parent="1">
          <mxGeometry relative="1" as="geometry">
            <mxPoint x="644.8" y="120" as="sourcePoint" />
            <mxPoint x="644.8" y="140.00000000000006" as="targetPoint" />
          </mxGeometry>
        </mxCell>
        <mxCell id="6zYEtl8LHIOl750SULep-109" style="edgeStyle=none;rounded=0;orthogonalLoop=1;jettySize=auto;html=1;entryX=0.5;entryY=0;entryDx=0;entryDy=0;fontSize=16;" edge="1" parent="1">
          <mxGeometry relative="1" as="geometry">
            <mxPoint x="810" y="120" as="sourcePoint" />
            <mxPoint x="810" y="140.00000000000006" as="targetPoint" />
          </mxGeometry>
        </mxCell>
        <mxCell id="6zYEtl8LHIOl750SULep-110" style="edgeStyle=none;rounded=0;orthogonalLoop=1;jettySize=auto;html=1;entryX=0.5;entryY=0;entryDx=0;entryDy=0;fontSize=16;" edge="1" parent="1" target="6zYEtl8LHIOl750SULep-97">
          <mxGeometry relative="1" as="geometry">
            <mxPoint x="955" y="90" as="sourcePoint" />
          </mxGeometry>
        </mxCell>
        <mxCell id="6zYEtl8LHIOl750SULep-111" value="&lt;b&gt;24&lt;/b&gt;" style="shape=step;perimeter=stepPerimeter;whiteSpace=wrap;html=1;fixedSize=1;fontSize=16;size=10;fillColor=#f8cecc;strokeColor=#b85450;" vertex="1" parent="1">
          <mxGeometry x="1030" y="140" width="60" height="50" as="geometry" />
        </mxCell>
        <mxCell id="6zYEtl8LHIOl750SULep-113" value="" style="edgeStyle=none;rounded=0;orthogonalLoop=1;jettySize=auto;html=1;fontSize=16;" edge="1" parent="1" source="6zYEtl8LHIOl750SULep-112" target="6zYEtl8LHIOl750SULep-111">
          <mxGeometry relative="1" as="geometry" />
        </mxCell>
        <mxCell id="6zYEtl8LHIOl750SULep-112" value="&lt;b&gt;&lt;font color=&quot;#000000&quot;&gt;# Coef.&lt;/font&gt;&lt;/b&gt;" style="shape=process;whiteSpace=wrap;html=1;backgroundOutline=1;fontSize=16;size=0.14285714285714285;fillColor=#f5f5f5;fontColor=#333333;strokeColor=#666666;" vertex="1" parent="1">
          <mxGeometry x="1025" y="20" width="70" height="60" as="geometry" />
        </mxCell>
        <mxCell id="6zYEtl8LHIOl750SULep-114" value="Numerical (11)" style="swimlane;horizontal=0;fontSize=16;startSize=30;fillColor=#dae8fc;strokeColor=#6c8ebf;" vertex="1" parent="1">
          <mxGeometry x="10" y="360" width="190" height="200" as="geometry" />
        </mxCell>
        <mxCell id="6zYEtl8LHIOl750SULep-119" value="Total Funding Amount" style="shape=partialRectangle;overflow=hidden;connectable=0;fillColor=none;top=0;left=0;bottom=0;right=0;align=left;spacingLeft=6;" vertex="1" parent="6zYEtl8LHIOl750SULep-114">
          <mxGeometry x="30" width="130" height="30" as="geometry">
            <mxRectangle width="180" height="30" as="alternateBounds" />
          </mxGeometry>
        </mxCell>
        <mxCell id="6zYEtl8LHIOl750SULep-120" value="Number of Investors" style="shape=partialRectangle;overflow=hidden;connectable=0;fillColor=none;top=0;left=0;bottom=0;right=0;align=left;spacingLeft=6;" vertex="1" parent="6zYEtl8LHIOl750SULep-114">
          <mxGeometry x="30" y="30" width="120" height="30" as="geometry">
            <mxRectangle width="180" height="30" as="alternateBounds" />
          </mxGeometry>
        </mxCell>
        <mxCell id="6zYEtl8LHIOl750SULep-124" value="Number of Lead Investors" style="shape=partialRectangle;overflow=hidden;connectable=0;fillColor=none;top=0;left=0;bottom=0;right=0;align=left;spacingLeft=6;" vertex="1" parent="6zYEtl8LHIOl750SULep-114">
          <mxGeometry x="30" y="60" width="150" height="30" as="geometry">
            <mxRectangle width="180" height="30" as="alternateBounds" />
          </mxGeometry>
        </mxCell>
        <mxCell id="6zYEtl8LHIOl750SULep-125" value="Number of Acquisitions" style="shape=partialRectangle;overflow=hidden;connectable=0;fillColor=none;top=0;left=0;bottom=0;right=0;align=left;spacingLeft=6;" vertex="1" parent="6zYEtl8LHIOl750SULep-114">
          <mxGeometry x="30" y="90" width="140" height="30" as="geometry">
            <mxRectangle width="180" height="30" as="alternateBounds" />
          </mxGeometry>
        </mxCell>
        <mxCell id="6zYEtl8LHIOl750SULep-126" value="Tech Stack (7)" style="swimlane;fontSize=16;startSize=30;fillColor=#e1d5e7;strokeColor=#9673a6;" vertex="1" collapsed="1" parent="6zYEtl8LHIOl750SULep-114">
          <mxGeometry x="40" y="160" width="130" height="30" as="geometry">
            <mxRectangle x="360" y="470" width="150" height="180" as="alternateBounds" />
          </mxGeometry>
        </mxCell>
        <mxCell id="6zYEtl8LHIOl750SULep-127" value="Monthly Visits" style="shape=partialRectangle;overflow=hidden;connectable=0;fillColor=none;top=0;left=0;bottom=0;right=0;align=left;spacingLeft=6;" vertex="1" parent="6zYEtl8LHIOl750SULep-126">
          <mxGeometry y="30" width="120" height="30" as="geometry">
            <mxRectangle width="180" height="30" as="alternateBounds" />
          </mxGeometry>
        </mxCell>
        <mxCell id="6zYEtl8LHIOl750SULep-128" value="Active Tech Count" style="shape=partialRectangle;overflow=hidden;connectable=0;fillColor=none;top=0;left=0;bottom=0;right=0;align=left;spacingLeft=6;" vertex="1" parent="6zYEtl8LHIOl750SULep-126">
          <mxGeometry y="60" width="120" height="30" as="geometry">
            <mxRectangle width="180" height="30" as="alternateBounds" />
          </mxGeometry>
        </mxCell>
        <mxCell id="6zYEtl8LHIOl750SULep-129" value="Number of Apps" style="shape=partialRectangle;overflow=hidden;connectable=0;fillColor=none;top=0;left=0;bottom=0;right=0;align=left;spacingLeft=6;" vertex="1" parent="6zYEtl8LHIOl750SULep-126">
          <mxGeometry y="90" width="150" height="30" as="geometry">
            <mxRectangle width="180" height="30" as="alternateBounds" />
          </mxGeometry>
        </mxCell>
        <mxCell id="6zYEtl8LHIOl750SULep-130" value="Total Products Active" style="shape=partialRectangle;overflow=hidden;connectable=0;fillColor=none;top=0;left=0;bottom=0;right=0;align=left;spacingLeft=6;" vertex="1" parent="6zYEtl8LHIOl750SULep-126">
          <mxGeometry y="120" width="120" height="30" as="geometry">
            <mxRectangle width="180" height="30" as="alternateBounds" />
          </mxGeometry>
        </mxCell>
        <mxCell id="6zYEtl8LHIOl750SULep-131" value="..." style="shape=partialRectangle;overflow=hidden;connectable=0;fillColor=none;top=0;left=0;bottom=0;right=0;align=left;spacingLeft=6;" vertex="1" parent="6zYEtl8LHIOl750SULep-126">
          <mxGeometry y="150" width="120" height="30" as="geometry">
            <mxRectangle width="180" height="30" as="alternateBounds" />
          </mxGeometry>
        </mxCell>
        <mxCell id="6zYEtl8LHIOl750SULep-162" value="% Female Founders" style="shape=partialRectangle;overflow=hidden;connectable=0;fillColor=none;top=0;left=0;bottom=0;right=0;align=left;spacingLeft=6;" vertex="1" parent="6zYEtl8LHIOl750SULep-114">
          <mxGeometry x="30" y="120" width="120" height="30" as="geometry">
            <mxRectangle width="180" height="30" as="alternateBounds" />
          </mxGeometry>
        </mxCell>
        <mxCell id="6zYEtl8LHIOl750SULep-132" value="" style="shape=flexArrow;endArrow=classic;html=1;rounded=0;fontSize=16;" edge="1" parent="1">
          <mxGeometry width="50" height="50" relative="1" as="geometry">
            <mxPoint x="490" y="244" as="sourcePoint" />
            <mxPoint x="490" y="340" as="targetPoint" />
          </mxGeometry>
        </mxCell>
        <mxCell id="6zYEtl8LHIOl750SULep-133" value="&lt;i&gt;Data Type&lt;/i&gt;" style="edgeLabel;html=1;align=center;verticalAlign=middle;resizable=0;points=[];fontSize=16;" vertex="1" connectable="0" parent="6zYEtl8LHIOl750SULep-132">
          <mxGeometry x="0.125" y="-1" relative="1" as="geometry">
            <mxPoint y="-6" as="offset" />
          </mxGeometry>
        </mxCell>
        <mxCell id="6zYEtl8LHIOl750SULep-134" value="Categorical (131)" style="swimlane;horizontal=0;fontSize=16;startSize=30;fillColor=#dae8fc;strokeColor=#6c8ebf;" vertex="1" parent="1">
          <mxGeometry x="220" y="360" width="170" height="150" as="geometry" />
        </mxCell>
        <mxCell id="6zYEtl8LHIOl750SULep-148" value="Location (3)" style="swimlane;fontSize=16;startSize=30;fillColor=#e1d5e7;strokeColor=#9673a6;" vertex="1" collapsed="1" parent="6zYEtl8LHIOl750SULep-134">
          <mxGeometry x="40" y="10" width="120" height="30" as="geometry">
            <mxRectangle x="520" y="450" width="110" height="120" as="alternateBounds" />
          </mxGeometry>
        </mxCell>
        <mxCell id="6zYEtl8LHIOl750SULep-149" value="China" style="shape=partialRectangle;overflow=hidden;connectable=0;fillColor=none;top=0;left=0;bottom=0;right=0;align=left;spacingLeft=6;" vertex="1" parent="6zYEtl8LHIOl750SULep-148">
          <mxGeometry y="30" width="120" height="30" as="geometry">
            <mxRectangle width="180" height="30" as="alternateBounds" />
          </mxGeometry>
        </mxCell>
        <mxCell id="6zYEtl8LHIOl750SULep-150" value="Europe" style="shape=partialRectangle;overflow=hidden;connectable=0;fillColor=none;top=0;left=0;bottom=0;right=0;align=left;spacingLeft=6;" vertex="1" parent="6zYEtl8LHIOl750SULep-148">
          <mxGeometry y="60" width="100" height="30" as="geometry">
            <mxRectangle width="180" height="30" as="alternateBounds" />
          </mxGeometry>
        </mxCell>
        <mxCell id="6zYEtl8LHIOl750SULep-151" value="United States" style="shape=partialRectangle;overflow=hidden;connectable=0;fillColor=none;top=0;left=0;bottom=0;right=0;align=left;spacingLeft=6;" vertex="1" parent="6zYEtl8LHIOl750SULep-148">
          <mxGeometry y="90" width="100" height="30" as="geometry">
            <mxRectangle width="180" height="30" as="alternateBounds" />
          </mxGeometry>
        </mxCell>
        <mxCell id="6zYEtl8LHIOl750SULep-185" value="Ordinal (30)" style="swimlane;horizontal=0;fontSize=16;startSize=30;fillColor=#d5e8d4;strokeColor=#82b366;rotation=90;" vertex="1" collapsed="1" parent="6zYEtl8LHIOl750SULep-134">
          <mxGeometry x="85" y="5" width="30" height="120" as="geometry">
            <mxRectangle x="250" y="580" width="200" height="120" as="alternateBounds" />
          </mxGeometry>
        </mxCell>
        <mxCell id="6zYEtl8LHIOl750SULep-186" value="Number of Employees (10)" style="shape=partialRectangle;overflow=hidden;connectable=0;fillColor=none;top=0;left=0;bottom=0;right=0;align=left;spacingLeft=6;rotation=90;" vertex="1" parent="6zYEtl8LHIOl750SULep-185">
          <mxGeometry x="-25" y="135" width="160" height="30" as="geometry">
            <mxRectangle width="180" height="30" as="alternateBounds" />
          </mxGeometry>
        </mxCell>
        <mxCell id="6zYEtl8LHIOl750SULep-187" value="Estimate Revenue Range (9)" style="shape=partialRectangle;overflow=hidden;connectable=0;fillColor=none;top=0;left=0;bottom=0;right=0;align=left;spacingLeft=6;rotation=90;" vertex="1" parent="6zYEtl8LHIOl750SULep-185">
          <mxGeometry x="-60" y="140" width="170" height="30" as="geometry">
            <mxRectangle width="180" height="30" as="alternateBounds" />
          </mxGeometry>
        </mxCell>
        <mxCell id="6zYEtl8LHIOl750SULep-188" value="Most Recent Valuation (9)" style="shape=partialRectangle;overflow=hidden;connectable=0;fillColor=none;top=0;left=0;bottom=0;right=0;align=left;spacingLeft=6;rotation=90;" vertex="1" parent="6zYEtl8LHIOl750SULep-185">
          <mxGeometry x="-90" y="140" width="170" height="30" as="geometry">
            <mxRectangle width="180" height="30" as="alternateBounds" />
          </mxGeometry>
        </mxCell>
        <mxCell id="6zYEtl8LHIOl750SULep-189" value="Last Funding Type (2)" style="shape=partialRectangle;overflow=hidden;connectable=0;fillColor=none;top=0;left=0;bottom=0;right=0;align=left;spacingLeft=6;rotation=90;" vertex="1" parent="6zYEtl8LHIOl750SULep-185">
          <mxGeometry x="-105" y="125" width="140" height="30" as="geometry">
            <mxRectangle width="180" height="30" as="alternateBounds" />
          </mxGeometry>
        </mxCell>
        <mxCell id="6zYEtl8LHIOl750SULep-190" value="Multi-Label &#xa;(984)" style="swimlane;horizontal=0;fontSize=16;startSize=58;fillColor=#d5e8d4;strokeColor=#82b366;rotation=90;" vertex="1" collapsed="1" parent="6zYEtl8LHIOl750SULep-134">
          <mxGeometry x="75.3" y="55.95" width="49.38" height="120" as="geometry">
            <mxRectangle x="290" y="580" width="200" height="270" as="alternateBounds" />
          </mxGeometry>
        </mxCell>
        <mxCell id="6zYEtl8LHIOl750SULep-191" value="Industries (603)" style="swimlane;fontSize=16;startSize=30;fillColor=#b0e3e6;strokeColor=#0e8088;fontColor=#FF0000;rotation=90;" vertex="1" parent="6zYEtl8LHIOl750SULep-190">
          <mxGeometry x="-50" y="120" width="150" height="120" as="geometry" />
        </mxCell>
        <mxCell id="6zYEtl8LHIOl750SULep-192" value="Healthcare" style="shape=partialRectangle;overflow=hidden;connectable=0;fillColor=none;top=0;left=0;bottom=0;right=0;align=left;spacingLeft=6;rotation=90;" vertex="1" parent="6zYEtl8LHIOl750SULep-191">
          <mxGeometry x="35" y="25" width="110" height="30" as="geometry">
            <mxRectangle width="180" height="30" as="alternateBounds" />
          </mxGeometry>
        </mxCell>
        <mxCell id="6zYEtl8LHIOl750SULep-193" value="Artificial Intelligence" style="shape=partialRectangle;overflow=hidden;connectable=0;fillColor=none;top=0;left=0;bottom=0;right=0;align=left;spacingLeft=6;rotation=90;" vertex="1" parent="6zYEtl8LHIOl750SULep-191">
          <mxGeometry y="30" width="120" height="30" as="geometry">
            <mxRectangle width="180" height="30" as="alternateBounds" />
          </mxGeometry>
        </mxCell>
        <mxCell id="6zYEtl8LHIOl750SULep-194" value="..." style="shape=partialRectangle;overflow=hidden;connectable=0;fillColor=none;top=0;left=0;bottom=0;right=0;align=left;spacingLeft=6;rotation=90;" vertex="1" parent="6zYEtl8LHIOl750SULep-191">
          <mxGeometry x="-25" y="25" width="110" height="30" as="geometry">
            <mxRectangle width="180" height="30" as="alternateBounds" />
          </mxGeometry>
        </mxCell>
        <mxCell id="6zYEtl8LHIOl750SULep-195" value="Investors (4773)" style="swimlane;fontSize=16;startSize=30;fillColor=#b0e3e6;strokeColor=#0e8088;fontColor=#FF0000;rotation=90;" vertex="1" parent="6zYEtl8LHIOl750SULep-190">
          <mxGeometry x="-180" y="120" width="150" height="120" as="geometry" />
        </mxCell>
        <mxCell id="6zYEtl8LHIOl750SULep-196" value="Goldman Sachs" style="shape=partialRectangle;overflow=hidden;connectable=0;fillColor=none;top=0;left=0;bottom=0;right=0;align=left;spacingLeft=6;rotation=90;" vertex="1" parent="6zYEtl8LHIOl750SULep-195">
          <mxGeometry x="35" y="25" width="110" height="30" as="geometry">
            <mxRectangle width="180" height="30" as="alternateBounds" />
          </mxGeometry>
        </mxCell>
        <mxCell id="6zYEtl8LHIOl750SULep-197" value="Alibaba Group" style="shape=partialRectangle;overflow=hidden;connectable=0;fillColor=none;top=0;left=0;bottom=0;right=0;align=left;spacingLeft=6;rotation=90;" vertex="1" parent="6zYEtl8LHIOl750SULep-195">
          <mxGeometry y="30" width="120" height="30" as="geometry">
            <mxRectangle width="180" height="30" as="alternateBounds" />
          </mxGeometry>
        </mxCell>
        <mxCell id="6zYEtl8LHIOl750SULep-198" value="..." style="shape=partialRectangle;overflow=hidden;connectable=0;fillColor=none;top=0;left=0;bottom=0;right=0;align=left;spacingLeft=6;rotation=90;" vertex="1" parent="6zYEtl8LHIOl750SULep-195">
          <mxGeometry x="-25" y="25" width="110" height="30" as="geometry">
            <mxRectangle width="180" height="30" as="alternateBounds" />
          </mxGeometry>
        </mxCell>
        <mxCell id="6zYEtl8LHIOl750SULep-179" value="&lt;b&gt;1034&lt;/b&gt;" style="shape=step;perimeter=stepPerimeter;whiteSpace=wrap;html=1;fixedSize=1;fontSize=16;size=10;fillColor=#f8cecc;strokeColor=#b85450;" vertex="1" parent="1">
          <mxGeometry x="1030" y="360" width="60" height="50" as="geometry" />
        </mxCell>
        <mxCell id="6zYEtl8LHIOl750SULep-180" value="" style="edgeStyle=none;rounded=0;orthogonalLoop=1;jettySize=auto;html=1;fontSize=16;entryX=0.5;entryY=0;entryDx=0;entryDy=0;" edge="1" parent="1" target="6zYEtl8LHIOl750SULep-179">
          <mxGeometry relative="1" as="geometry">
            <mxPoint x="1059.44" y="190" as="sourcePoint" />
            <mxPoint x="1059.44" y="250" as="targetPoint" />
          </mxGeometry>
        </mxCell>
        <mxCell id="6zYEtl8LHIOl750SULep-181" value="&lt;b&gt;1032&lt;/b&gt;" style="shape=step;perimeter=stepPerimeter;whiteSpace=wrap;html=1;fixedSize=1;fontSize=16;size=10;fillColor=#f8cecc;strokeColor=#b85450;" vertex="1" parent="1">
          <mxGeometry x="1030" y="630" width="60" height="50" as="geometry" />
        </mxCell>
        <mxCell id="6zYEtl8LHIOl750SULep-182" value="" style="edgeStyle=none;rounded=0;orthogonalLoop=1;jettySize=auto;html=1;fontSize=16;entryX=0.5;entryY=0;entryDx=0;entryDy=0;" edge="1" parent="1" target="6zYEtl8LHIOl750SULep-181">
          <mxGeometry relative="1" as="geometry">
            <mxPoint x="1059.44" y="410" as="sourcePoint" />
            <mxPoint x="1060" y="580" as="targetPoint" />
          </mxGeometry>
        </mxCell>
        <mxCell id="6zYEtl8LHIOl750SULep-183" value="&lt;i&gt;- 1: location (collinearity)&lt;br&gt;- 1: funding (target variable)&lt;/i&gt;" style="edgeLabel;html=1;align=center;verticalAlign=middle;resizable=0;points=[];fontSize=12;fontColor=#000000;" vertex="1" connectable="0" parent="6zYEtl8LHIOl750SULep-182">
          <mxGeometry x="0.1046" relative="1" as="geometry">
            <mxPoint x="-40" y="-7" as="offset" />
          </mxGeometry>
        </mxCell>
        <mxCell id="6zYEtl8LHIOl750SULep-204" value="" style="group" vertex="1" connectable="0" parent="1">
          <mxGeometry x="400" y="410" width="200" height="220" as="geometry" />
        </mxCell>
        <mxCell id="6zYEtl8LHIOl750SULep-153" value="Ordinal (30)" style="swimlane;horizontal=0;fontSize=16;startSize=30;fillColor=#d5e8d4;strokeColor=#82b366;" vertex="1" parent="6zYEtl8LHIOl750SULep-204">
          <mxGeometry width="200" height="120" as="geometry" />
        </mxCell>
        <mxCell id="6zYEtl8LHIOl750SULep-154" value="Number of Employees (10)" style="shape=partialRectangle;overflow=hidden;connectable=0;fillColor=none;top=0;left=0;bottom=0;right=0;align=left;spacingLeft=6;" vertex="1" parent="6zYEtl8LHIOl750SULep-153">
          <mxGeometry x="30" width="160" height="30" as="geometry">
            <mxRectangle width="180" height="30" as="alternateBounds" />
          </mxGeometry>
        </mxCell>
        <mxCell id="6zYEtl8LHIOl750SULep-155" value="Estimate Revenue Range (9)" style="shape=partialRectangle;overflow=hidden;connectable=0;fillColor=none;top=0;left=0;bottom=0;right=0;align=left;spacingLeft=6;" vertex="1" parent="6zYEtl8LHIOl750SULep-153">
          <mxGeometry x="30" y="30" width="170" height="30" as="geometry">
            <mxRectangle width="180" height="30" as="alternateBounds" />
          </mxGeometry>
        </mxCell>
        <mxCell id="6zYEtl8LHIOl750SULep-156" value="Most Recent Valuation (9)" style="shape=partialRectangle;overflow=hidden;connectable=0;fillColor=none;top=0;left=0;bottom=0;right=0;align=left;spacingLeft=6;" vertex="1" parent="6zYEtl8LHIOl750SULep-153">
          <mxGeometry x="30" y="60" width="170" height="30" as="geometry">
            <mxRectangle width="180" height="30" as="alternateBounds" />
          </mxGeometry>
        </mxCell>
        <mxCell id="6zYEtl8LHIOl750SULep-157" value="Last Funding Type (2)" style="shape=partialRectangle;overflow=hidden;connectable=0;fillColor=none;top=0;left=0;bottom=0;right=0;align=left;spacingLeft=6;" vertex="1" parent="6zYEtl8LHIOl750SULep-153">
          <mxGeometry x="30" y="90" width="140" height="30" as="geometry">
            <mxRectangle width="180" height="30" as="alternateBounds" />
          </mxGeometry>
        </mxCell>
        <mxCell id="6zYEtl8LHIOl750SULep-201" style="edgeStyle=none;rounded=0;orthogonalLoop=1;jettySize=auto;html=1;fontSize=12;fontColor=#000000;exitX=0.5;exitY=1;exitDx=0;exitDy=0;shape=link;width=-5.555555555555555;fillColor=#fff2cc;strokeColor=#d6b656;" edge="1" parent="6zYEtl8LHIOl750SULep-204" source="6zYEtl8LHIOl750SULep-153">
          <mxGeometry relative="1" as="geometry">
            <mxPoint x="100" y="130" as="targetPoint" />
          </mxGeometry>
        </mxCell>
        <mxCell id="6zYEtl8LHIOl750SULep-169" value="&lt;font style=&quot;font-size: 12px;&quot;&gt;e.g. &lt;i&gt;Number of Employees&lt;/i&gt; includes categories such as [&#39;1-10&#39;, &#39;11-50&#39;, &#39;51-100&#39; , &#39;101-250&#39;, ...], these are each encoded as [1, 2, 3, 4, ...]&lt;/font&gt;" style="shape=note;whiteSpace=wrap;html=1;backgroundOutline=1;darkOpacity=0.05;fontSize=16;size=13;fillColor=#fff2cc;strokeColor=#d6b656;" vertex="1" parent="6zYEtl8LHIOl750SULep-204">
          <mxGeometry y="130" width="200" height="90" as="geometry" />
        </mxCell>
        <mxCell id="6zYEtl8LHIOl750SULep-163" value="Multi-Label (5376)" style="swimlane;horizontal=0;fontSize=16;startSize=30;fillColor=#d5e8d4;strokeColor=#82b366;" vertex="1" parent="1">
          <mxGeometry x="610" y="410" width="200" height="270" as="geometry" />
        </mxCell>
        <mxCell id="6zYEtl8LHIOl750SULep-171" value="Industries (603)" style="swimlane;fontSize=16;startSize=30;fillColor=#b0e3e6;strokeColor=#0e8088;fontColor=#FF0000;" vertex="1" parent="6zYEtl8LHIOl750SULep-163">
          <mxGeometry x="40" y="10" width="150" height="120" as="geometry" />
        </mxCell>
        <mxCell id="6zYEtl8LHIOl750SULep-172" value="Healthcare" style="shape=partialRectangle;overflow=hidden;connectable=0;fillColor=none;top=0;left=0;bottom=0;right=0;align=left;spacingLeft=6;" vertex="1" parent="6zYEtl8LHIOl750SULep-171">
          <mxGeometry y="30" width="110" height="30" as="geometry">
            <mxRectangle width="180" height="30" as="alternateBounds" />
          </mxGeometry>
        </mxCell>
        <mxCell id="6zYEtl8LHIOl750SULep-173" value="Artificial Intelligence" style="shape=partialRectangle;overflow=hidden;connectable=0;fillColor=none;top=0;left=0;bottom=0;right=0;align=left;spacingLeft=6;" vertex="1" parent="6zYEtl8LHIOl750SULep-171">
          <mxGeometry y="60" width="120" height="30" as="geometry">
            <mxRectangle width="180" height="30" as="alternateBounds" />
          </mxGeometry>
        </mxCell>
        <mxCell id="6zYEtl8LHIOl750SULep-174" value="..." style="shape=partialRectangle;overflow=hidden;connectable=0;fillColor=none;top=0;left=0;bottom=0;right=0;align=left;spacingLeft=6;" vertex="1" parent="6zYEtl8LHIOl750SULep-171">
          <mxGeometry y="90" width="110" height="30" as="geometry">
            <mxRectangle width="180" height="30" as="alternateBounds" />
          </mxGeometry>
        </mxCell>
        <mxCell id="6zYEtl8LHIOl750SULep-175" value="Investors (4773)" style="swimlane;fontSize=16;startSize=30;fillColor=#b0e3e6;strokeColor=#0e8088;fontColor=#FF0000;" vertex="1" parent="6zYEtl8LHIOl750SULep-163">
          <mxGeometry x="40" y="140" width="150" height="120" as="geometry" />
        </mxCell>
        <mxCell id="6zYEtl8LHIOl750SULep-176" value="Goldman Sachs" style="shape=partialRectangle;overflow=hidden;connectable=0;fillColor=none;top=0;left=0;bottom=0;right=0;align=left;spacingLeft=6;" vertex="1" parent="6zYEtl8LHIOl750SULep-175">
          <mxGeometry y="30" width="110" height="30" as="geometry">
            <mxRectangle width="180" height="30" as="alternateBounds" />
          </mxGeometry>
        </mxCell>
        <mxCell id="6zYEtl8LHIOl750SULep-177" value="Alibaba Group" style="shape=partialRectangle;overflow=hidden;connectable=0;fillColor=none;top=0;left=0;bottom=0;right=0;align=left;spacingLeft=6;" vertex="1" parent="6zYEtl8LHIOl750SULep-175">
          <mxGeometry y="60" width="120" height="30" as="geometry">
            <mxRectangle width="180" height="30" as="alternateBounds" />
          </mxGeometry>
        </mxCell>
        <mxCell id="6zYEtl8LHIOl750SULep-178" value="..." style="shape=partialRectangle;overflow=hidden;connectable=0;fillColor=none;top=0;left=0;bottom=0;right=0;align=left;spacingLeft=6;" vertex="1" parent="6zYEtl8LHIOl750SULep-175">
          <mxGeometry y="90" width="110" height="30" as="geometry">
            <mxRectangle width="180" height="30" as="alternateBounds" />
          </mxGeometry>
        </mxCell>
        <mxCell id="6zYEtl8LHIOl750SULep-206" value="" style="group" vertex="1" connectable="0" parent="1">
          <mxGeometry x="830" y="355" width="160" height="110" as="geometry" />
        </mxCell>
        <mxCell id="6zYEtl8LHIOl750SULep-115" value="Date (6)" style="swimlane;horizontal=0;fontSize=16;startSize=30;fillColor=#dae8fc;strokeColor=#6c8ebf;" vertex="1" parent="6zYEtl8LHIOl750SULep-206">
          <mxGeometry width="160" height="70" as="geometry" />
        </mxCell>
        <mxCell id="6zYEtl8LHIOl750SULep-116" value="Founded Date (3)" style="shape=partialRectangle;overflow=hidden;connectable=0;fillColor=none;top=0;left=0;bottom=0;right=0;align=left;spacingLeft=6;" vertex="1" parent="6zYEtl8LHIOl750SULep-115">
          <mxGeometry x="30" width="120" height="30" as="geometry">
            <mxRectangle width="180" height="30" as="alternateBounds" />
          </mxGeometry>
        </mxCell>
        <mxCell id="6zYEtl8LHIOl750SULep-117" value="Last Funding Date (3)" style="shape=partialRectangle;overflow=hidden;connectable=0;fillColor=none;top=0;left=0;bottom=0;right=0;align=left;spacingLeft=6;" vertex="1" parent="6zYEtl8LHIOl750SULep-115">
          <mxGeometry x="30" y="30" width="130" height="30" as="geometry">
            <mxRectangle width="180" height="30" as="alternateBounds" />
          </mxGeometry>
        </mxCell>
        <mxCell id="6zYEtl8LHIOl750SULep-168" value="&lt;font style=&quot;font-size: 12px;&quot;&gt;separate day, month, year&lt;/font&gt;" style="shape=note;whiteSpace=wrap;html=1;backgroundOutline=1;darkOpacity=0.05;fontSize=16;size=13;fillColor=#fff2cc;strokeColor=#d6b656;" vertex="1" parent="6zYEtl8LHIOl750SULep-206">
          <mxGeometry y="80" width="160" height="30" as="geometry" />
        </mxCell>
        <mxCell id="6zYEtl8LHIOl750SULep-202" style="edgeStyle=none;rounded=0;orthogonalLoop=1;jettySize=auto;html=1;fontSize=12;fontColor=#000000;exitX=0.5;exitY=1;exitDx=0;exitDy=0;shape=link;width=-5.555555555555555;fillColor=#fff2cc;strokeColor=#d6b656;" edge="1" parent="6zYEtl8LHIOl750SULep-206">
          <mxGeometry relative="1" as="geometry">
            <mxPoint x="79.86000000000001" y="80.00000000000011" as="targetPoint" />
            <mxPoint x="79.86000000000001" y="70.00000000000011" as="sourcePoint" />
          </mxGeometry>
        </mxCell>
        <mxCell id="6zYEtl8LHIOl750SULep-207" style="edgeStyle=none;rounded=0;orthogonalLoop=1;jettySize=auto;html=1;fontSize=12;fontColor=#000000;exitX=0.5;exitY=1;exitDx=0;exitDy=0;shape=link;width=-5.555555555555555;fillColor=#fff2cc;strokeColor=#d6b656;" edge="1" parent="1">
          <mxGeometry relative="1" as="geometry">
            <mxPoint x="810" y="620" as="targetPoint" />
            <mxPoint x="820" y="620" as="sourcePoint" />
          </mxGeometry>
        </mxCell>
        <mxCell id="6zYEtl8LHIOl750SULep-199" value="&lt;font style=&quot;font-size: 12px;&quot;&gt;only take the top values that appear frequently to one-hot-encode so that the data is not sparse&lt;/font&gt;" style="shape=note;whiteSpace=wrap;html=1;backgroundOutline=1;darkOpacity=0.05;fontSize=16;size=13;fillColor=#fff2cc;strokeColor=#d6b656;" vertex="1" parent="1">
          <mxGeometry x="820" y="572" width="124" height="108" as="geometry" />
        </mxCell>
      </root>
    </mxGraphModel>
  </diagram>
</mxfile>
